<mxfile host="app.diagrams.net" modified="2022-12-27T16:02:00.808Z" agent="5.0 (Windows NT 10.0; Win64; x64) AppleWebKit/537.36 (KHTML, like Gecko) Chrome/108.0.0.0 Safari/537.36" etag="KfRUC2lMSxgapGKfJa8X" version="20.7.4" type="github">
  <diagram name="Page-1" id="e7e014a7-5840-1c2e-5031-d8a46d1fe8dd">
    <mxGraphModel dx="1434" dy="796" grid="1" gridSize="10" guides="1" tooltips="1" connect="1" arrows="1" fold="1" page="1" pageScale="1" pageWidth="827" pageHeight="1169" background="none" math="0" shadow="0">
      <root>
        <mxCell id="0" />
        <mxCell id="1" parent="0" />
        <mxCell id="2" value="Addetto alla Sala" style="swimlane;whiteSpace=wrap" parent="1" vertex="1">
          <mxGeometry x="39" y="183" width="250" height="804" as="geometry" />
        </mxCell>
        <mxCell id="5" value="" style="ellipse;shape=startState;fillColor=#000000;strokeColor=#000000;" parent="2" vertex="1">
          <mxGeometry x="110" y="42" width="30" height="30" as="geometry" />
        </mxCell>
        <mxCell id="vfh_crtKAgspOHQiJ0qC-41" value="Preme il bottone &#xa;&quot;Ordinazioni&quot;" style="strokeColor=#000000;fontSize=9;rounded=1;" parent="2" vertex="1">
          <mxGeometry x="82.5" y="112" width="85" height="35" as="geometry" />
        </mxCell>
        <mxCell id="vfh_crtKAgspOHQiJ0qC-43" value="" style="endArrow=open;endFill=1;endSize=12;html=1;rounded=0;fontSize=9;strokeWidth=1;exitX=0.5;exitY=1;exitDx=0;exitDy=0;" parent="2" source="5" target="vfh_crtKAgspOHQiJ0qC-41" edge="1">
          <mxGeometry width="160" relative="1" as="geometry">
            <mxPoint x="135.5" y="82" as="sourcePoint" />
            <mxPoint x="264" y="81.92000000000007" as="targetPoint" />
          </mxGeometry>
        </mxCell>
        <mxCell id="vfh_crtKAgspOHQiJ0qC-42" value="" style="endArrow=open;endFill=1;endSize=12;html=1;rounded=0;fontSize=9;strokeWidth=1;exitX=1;exitY=0.5;exitDx=0;exitDy=0;" parent="2" source="vfh_crtKAgspOHQiJ0qC-41" edge="1">
          <mxGeometry width="160" relative="1" as="geometry">
            <mxPoint x="199.5" y="129" as="sourcePoint" />
            <mxPoint x="375.5" y="129" as="targetPoint" />
          </mxGeometry>
        </mxCell>
        <mxCell id="vfh_crtKAgspOHQiJ0qC-45" value="Seleziona il tavolo" style="strokeColor=#000000;fontSize=9;rounded=1;" parent="2" vertex="1">
          <mxGeometry x="82.5" y="193" width="85" height="35" as="geometry" />
        </mxCell>
        <mxCell id="vfh_crtKAgspOHQiJ0qC-47" value="Modifica il numero&#xa;dei commensali" style="strokeColor=#000000;fontSize=9;rounded=1;" parent="2" vertex="1">
          <mxGeometry x="14.5" y="355" width="85" height="35" as="geometry" />
        </mxCell>
        <mxCell id="vfh_crtKAgspOHQiJ0qC-49" value="Preme bottone" style="rhombus;fillColor=#ffffc0;strokeColor=#000000;whiteSpace=wrap;spacing=0;fontSize=7;align=center;" parent="2" vertex="1">
          <mxGeometry x="92.38" y="409" width="63.25" height="40" as="geometry" />
        </mxCell>
        <mxCell id="vfh_crtKAgspOHQiJ0qC-52" value="IModifica i dati" style="rhombus;fillColor=#ffffc0;strokeColor=#000000;whiteSpace=wrap;spacing=0;fontSize=7;align=center;" parent="2" vertex="1">
          <mxGeometry x="92.36999999999999" y="307" width="63.25" height="40" as="geometry" />
        </mxCell>
        <mxCell id="vfh_crtKAgspOHQiJ0qC-57" value="Preme bottone" style="rhombus;fillColor=#ffffc0;strokeColor=#000000;whiteSpace=wrap;spacing=0;fontSize=7;align=center;" parent="2" vertex="1">
          <mxGeometry x="92.38000000000001" y="487" width="63.25" height="40" as="geometry" />
        </mxCell>
        <mxCell id="vfh_crtKAgspOHQiJ0qC-59" value="Preme bottone" style="rhombus;fillColor=#ffffc0;strokeColor=#000000;whiteSpace=wrap;spacing=0;fontSize=7;align=center;" parent="2" vertex="1">
          <mxGeometry x="93.38" y="607" width="63.25" height="40" as="geometry" />
        </mxCell>
        <mxCell id="vfh_crtKAgspOHQiJ0qC-64" value="Commensali" style="endArrow=open;endFill=1;endSize=12;rounded=0;fontSize=9;strokeWidth=1;exitX=0;exitY=0.5;exitDx=0;exitDy=0;entryX=0.447;entryY=0.037;entryDx=0;entryDy=0;entryPerimeter=0;" parent="2" edge="1">
          <mxGeometry x="-0.3387" y="-10" width="160" relative="1" as="geometry">
            <mxPoint x="92.37" y="327" as="sourcePoint" />
            <mxPoint x="52.495000000000005" y="356.29499999999996" as="targetPoint" />
            <Array as="points">
              <mxPoint x="52.5" y="327" />
            </Array>
            <mxPoint as="offset" />
          </mxGeometry>
        </mxCell>
        <mxCell id="vfh_crtKAgspOHQiJ0qC-83" value="" style="endArrow=open;endFill=1;endSize=12;html=1;rounded=0;fontSize=9;strokeWidth=1;exitX=0.5;exitY=1;exitDx=0;exitDy=0;" parent="2" source="vfh_crtKAgspOHQiJ0qC-52" target="vfh_crtKAgspOHQiJ0qC-49" edge="1">
          <mxGeometry width="160" relative="1" as="geometry">
            <mxPoint x="235.5" y="349" as="sourcePoint" />
            <mxPoint x="425.5" y="349" as="targetPoint" />
          </mxGeometry>
        </mxCell>
        <mxCell id="vfh_crtKAgspOHQiJ0qC-87" value="Modifica i prodotti&#xa;presenti" style="strokeColor=#000000;fontSize=9;rounded=1;" parent="2" vertex="1">
          <mxGeometry x="160.5" y="355" width="85" height="35" as="geometry" />
        </mxCell>
        <mxCell id="vfh_crtKAgspOHQiJ0qC-90" value="Prodotti" style="endArrow=open;endFill=1;endSize=12;rounded=0;fontSize=9;strokeWidth=1;exitX=1;exitY=0.5;exitDx=0;exitDy=0;entryX=0.506;entryY=0.057;entryDx=0;entryDy=0;entryPerimeter=0;" parent="2" source="vfh_crtKAgspOHQiJ0qC-52" target="vfh_crtKAgspOHQiJ0qC-87" edge="1">
          <mxGeometry x="-0.1299" y="10" width="160" relative="1" as="geometry">
            <mxPoint x="175.5" y="309" as="sourcePoint" />
            <mxPoint x="235.5" y="339" as="targetPoint" />
            <Array as="points">
              <mxPoint x="203.5" y="327" />
            </Array>
            <mxPoint as="offset" />
          </mxGeometry>
        </mxCell>
        <mxCell id="3" value="Sistema" style="swimlane;whiteSpace=wrap" parent="1" vertex="1">
          <mxGeometry x="289" y="183" width="250" height="804" as="geometry" />
        </mxCell>
        <mxCell id="vfh_crtKAgspOHQiJ0qC-44" value="Mostra schermata&#xa;&quot;Ordinazione&quot;" style="strokeColor=#000000;fontSize=9;rounded=1;" parent="3" vertex="1">
          <mxGeometry x="82.5" y="112" width="85" height="35" as="geometry" />
        </mxCell>
        <mxCell id="vfh_crtKAgspOHQiJ0qC-46" value="Mostra i dati &#xa;relativi al tavolo" style="strokeColor=#000000;fontSize=9;rounded=1;" parent="3" vertex="1">
          <mxGeometry x="82.5" y="267" width="85" height="35" as="geometry" />
        </mxCell>
        <mxCell id="vfh_crtKAgspOHQiJ0qC-50" value="Mostra schermata&#xa;&quot;Home Addetto Sala&quot;" style="strokeColor=#000000;fontSize=9;rounded=1;" parent="3" vertex="1">
          <mxGeometry x="82.5" y="699" width="85" height="35" as="geometry" />
        </mxCell>
        <mxCell id="vfh_crtKAgspOHQiJ0qC-55" value="Mostra schermata&#xa;&quot;Visualizza Menù&quot;" style="strokeColor=#000000;fontSize=9;rounded=1;" parent="3" vertex="1">
          <mxGeometry x="82.5" y="407" width="85" height="35" as="geometry" />
        </mxCell>
        <mxCell id="vfh_crtKAgspOHQiJ0qC-58" value="Mostra schermata&#xa;&quot;Visualizza prodotto&quot;" style="strokeColor=#000000;fontSize=9;rounded=1;" parent="3" vertex="1">
          <mxGeometry x="82.5" y="546" width="85" height="35" as="geometry" />
        </mxCell>
        <mxCell id="38" value="" style="ellipse;shape=endState;fillColor=#000000;strokeColor=#121212;" parent="3" vertex="1">
          <mxGeometry x="110" y="764" width="30" height="30" as="geometry" />
        </mxCell>
        <mxCell id="vfh_crtKAgspOHQiJ0qC-92" value="" style="endArrow=open;endFill=1;endSize=12;html=1;rounded=0;fontSize=9;strokeWidth=1;exitX=0.5;exitY=1;exitDx=0;exitDy=0;entryX=0.5;entryY=0;entryDx=0;entryDy=0;" parent="3" source="vfh_crtKAgspOHQiJ0qC-50" target="38" edge="1">
          <mxGeometry width="160" relative="1" as="geometry">
            <mxPoint x="124.5" y="747" as="sourcePoint" />
            <mxPoint x="74.5" y="777" as="targetPoint" />
          </mxGeometry>
        </mxCell>
        <mxCell id="4" value="API Interno" style="swimlane;whiteSpace=wrap" parent="1" vertex="1">
          <mxGeometry x="539" y="183" width="250" height="804" as="geometry" />
        </mxCell>
        <mxCell id="vfh_crtKAgspOHQiJ0qC-74" value="Salva&#xa;temporaneamente &#xa;il prodotto" style="strokeColor=#000000;fontSize=9;rounded=1;" parent="4" vertex="1">
          <mxGeometry x="95.5" y="607" width="85" height="35" as="geometry" />
        </mxCell>
        <mxCell id="vfh_crtKAgspOHQiJ0qC-85" value="Crea/modifica conto&#xa;con i nuovi dati" style="strokeColor=#000000;fontSize=9;rounded=1;" parent="4" vertex="1">
          <mxGeometry x="95.5" y="669" width="85" height="35" as="geometry" />
        </mxCell>
        <mxCell id="m1yTOo-GPtxDC_JN5f1o-38" value="Carica dal database&#xa;i dati relativi al&#xa;tavolo" style="strokeColor=#000000;fontSize=9;rounded=1;" parent="4" vertex="1">
          <mxGeometry x="95.5" y="228" width="85" height="35" as="geometry" />
        </mxCell>
        <mxCell id="vfh_crtKAgspOHQiJ0qC-60" value="" style="endArrow=open;endFill=1;endSize=12;html=1;rounded=0;fontSize=9;strokeWidth=1;exitX=0.494;exitY=1;exitDx=0;exitDy=0;exitPerimeter=0;entryX=1;entryY=0.5;entryDx=0;entryDy=0;" parent="1" source="vfh_crtKAgspOHQiJ0qC-44" target="vfh_crtKAgspOHQiJ0qC-45" edge="1">
          <mxGeometry width="160" relative="1" as="geometry">
            <mxPoint x="209.5" y="410" as="sourcePoint" />
            <mxPoint x="238.5" y="393" as="targetPoint" />
            <Array as="points">
              <mxPoint x="413.5" y="393" />
            </Array>
          </mxGeometry>
        </mxCell>
        <mxCell id="vfh_crtKAgspOHQiJ0qC-61" value="" style="endArrow=open;endFill=1;endSize=12;html=1;rounded=0;fontSize=9;strokeWidth=1;entryX=0;entryY=0.5;entryDx=0;entryDy=0;" parent="1" edge="1">
          <mxGeometry width="160" relative="1" as="geometry">
            <mxPoint x="160.5" y="411" as="sourcePoint" />
            <mxPoint x="634.5" y="429.5" as="targetPoint" />
            <Array as="points">
              <mxPoint x="160.5" y="431" />
            </Array>
          </mxGeometry>
        </mxCell>
        <mxCell id="vfh_crtKAgspOHQiJ0qC-62" value="" style="endArrow=open;endFill=1;endSize=12;html=1;rounded=0;fontSize=9;strokeWidth=1;entryX=0.5;entryY=0;entryDx=0;entryDy=0;exitX=0;exitY=0.5;exitDx=0;exitDy=0;" parent="1" source="vfh_crtKAgspOHQiJ0qC-46" target="vfh_crtKAgspOHQiJ0qC-52" edge="1">
          <mxGeometry width="160" relative="1" as="geometry">
            <mxPoint x="359.5" y="467.5" as="sourcePoint" />
            <mxPoint x="118.99499999999989" y="475" as="targetPoint" />
            <Array as="points">
              <mxPoint x="163.5" y="467" />
            </Array>
          </mxGeometry>
        </mxCell>
        <mxCell id="vfh_crtKAgspOHQiJ0qC-68" value="" style="endArrow=open;endFill=1;endSize=12;html=1;rounded=0;fontSize=9;strokeWidth=1;entryX=0.5;entryY=0;entryDx=0;entryDy=0;exitX=0.5;exitY=1;exitDx=0;exitDy=0;" parent="1" source="vfh_crtKAgspOHQiJ0qC-55" target="vfh_crtKAgspOHQiJ0qC-57" edge="1">
          <mxGeometry width="160" relative="1" as="geometry">
            <mxPoint x="414.5" y="640" as="sourcePoint" />
            <mxPoint x="564.5" y="650" as="targetPoint" />
            <Array as="points">
              <mxPoint x="414.5" y="650" />
              <mxPoint x="164.5" y="650" />
            </Array>
          </mxGeometry>
        </mxCell>
        <mxCell id="vfh_crtKAgspOHQiJ0qC-69" value="Qualsiasi prodotto" style="endArrow=open;endFill=1;endSize=12;rounded=0;fontSize=9;strokeWidth=1;exitX=1;exitY=0.5;exitDx=0;exitDy=0;entryX=0;entryY=0.5;entryDx=0;entryDy=0;labelBackgroundColor=none;" parent="1" source="vfh_crtKAgspOHQiJ0qC-57" target="vfh_crtKAgspOHQiJ0qC-58" edge="1">
          <mxGeometry x="-1" y="39" width="160" relative="1" as="geometry">
            <mxPoint x="214.5" y="740" as="sourcePoint" />
            <mxPoint x="354.5" y="752" as="targetPoint" />
            <Array as="points">
              <mxPoint x="195.5" y="747" />
            </Array>
            <mxPoint x="-1" y="-10" as="offset" />
          </mxGeometry>
        </mxCell>
        <mxCell id="vfh_crtKAgspOHQiJ0qC-70" value="&quot;Indietro&quot;" style="endArrow=open;endFill=1;endSize=12;rounded=0;fontSize=9;strokeWidth=1;exitX=0;exitY=0.5;exitDx=0;exitDy=0;entryX=1;entryY=0.5;entryDx=0;entryDy=0;" parent="1" source="vfh_crtKAgspOHQiJ0qC-57" target="vfh_crtKAgspOHQiJ0qC-44" edge="1">
          <mxGeometry x="-1" y="-23" width="160" relative="1" as="geometry">
            <mxPoint x="214.5" y="755" as="sourcePoint" />
            <mxPoint x="478.5" y="310" as="targetPoint" />
            <Array as="points">
              <mxPoint x="132.5" y="720" />
              <mxPoint x="508.5" y="720" />
              <mxPoint x="508.5" y="313" />
            </Array>
            <mxPoint as="offset" />
          </mxGeometry>
        </mxCell>
        <mxCell id="vfh_crtKAgspOHQiJ0qC-75" value="&quot;Aggiungi prodotto&quot;" style="endArrow=open;endFill=1;endSize=12;rounded=0;fontSize=9;strokeWidth=1;entryX=-0.024;entryY=0.571;entryDx=0;entryDy=0;entryPerimeter=0;spacingTop=7;labelBackgroundColor=none;exitX=1;exitY=0.5;exitDx=0;exitDy=0;" parent="1" source="vfh_crtKAgspOHQiJ0qC-59" edge="1">
          <mxGeometry x="-0.811" y="10" width="160" relative="1" as="geometry">
            <mxPoint x="208.62999999999988" y="810" as="sourcePoint" />
            <mxPoint x="630.46" y="809.9849999999999" as="targetPoint" />
            <mxPoint as="offset" />
          </mxGeometry>
        </mxCell>
        <mxCell id="vfh_crtKAgspOHQiJ0qC-76" value="" style="endArrow=open;endFill=1;endSize=12;html=1;rounded=0;fontSize=9;strokeWidth=1;exitX=0.518;exitY=-0.057;exitDx=0;exitDy=0;exitPerimeter=0;entryX=1;entryY=0.457;entryDx=0;entryDy=0;entryPerimeter=0;" parent="1" source="vfh_crtKAgspOHQiJ0qC-74" target="vfh_crtKAgspOHQiJ0qC-55" edge="1">
          <mxGeometry width="160" relative="1" as="geometry">
            <mxPoint x="564.5" y="680.02" as="sourcePoint" />
            <mxPoint x="678.5" y="600" as="targetPoint" />
            <Array as="points">
              <mxPoint x="678.5" y="606" />
            </Array>
          </mxGeometry>
        </mxCell>
        <mxCell id="vfh_crtKAgspOHQiJ0qC-84" value="&quot;Aggiungi Prodotti&quot;" style="endArrow=open;endFill=1;endSize=12;rounded=0;fontSize=9;strokeWidth=1;exitX=1;exitY=0.5;exitDx=0;exitDy=0;entryX=0;entryY=0.616;entryDx=0;entryDy=0;entryPerimeter=0;" parent="1" source="vfh_crtKAgspOHQiJ0qC-49" target="vfh_crtKAgspOHQiJ0qC-55" edge="1">
          <mxGeometry x="-0.6703" y="15" width="160" relative="1" as="geometry">
            <mxPoint x="214.5" y="572" as="sourcePoint" />
            <mxPoint x="368.5" y="612" as="targetPoint" />
            <mxPoint as="offset" />
          </mxGeometry>
        </mxCell>
        <mxCell id="vfh_crtKAgspOHQiJ0qC-86" value="&quot;Salva Ordinazione&quot;" style="endArrow=open;endFill=1;endSize=12;rounded=0;fontSize=9;strokeWidth=1;entryX=0.012;entryY=0.457;entryDx=0;entryDy=0;entryPerimeter=0;exitX=0;exitY=0.5;exitDx=0;exitDy=0;labelBackgroundColor=none;" parent="1" source="vfh_crtKAgspOHQiJ0qC-49" target="vfh_crtKAgspOHQiJ0qC-85" edge="1">
          <mxGeometry x="-0.9497" y="-15" width="160" relative="1" as="geometry">
            <mxPoint x="84.5" y="612" as="sourcePoint" />
            <mxPoint x="400.3699999999999" y="891" as="targetPoint" />
            <Array as="points">
              <mxPoint x="78.5" y="612" />
              <mxPoint x="78.5" y="870" />
            </Array>
            <mxPoint as="offset" />
          </mxGeometry>
        </mxCell>
        <mxCell id="vfh_crtKAgspOHQiJ0qC-91" value="" style="endArrow=open;endFill=1;endSize=12;html=1;rounded=0;fontSize=9;strokeWidth=1;entryX=1;entryY=0.5;entryDx=0;entryDy=0;" parent="1" source="vfh_crtKAgspOHQiJ0qC-85" target="vfh_crtKAgspOHQiJ0qC-50" edge="1">
          <mxGeometry width="160" relative="1" as="geometry">
            <mxPoint x="678.5" y="890" as="sourcePoint" />
            <mxPoint x="478.5" y="900" as="targetPoint" />
            <Array as="points">
              <mxPoint x="677.5" y="900" />
            </Array>
          </mxGeometry>
        </mxCell>
        <mxCell id="m1yTOo-GPtxDC_JN5f1o-39" value="" style="endArrow=open;endFill=1;endSize=12;html=1;rounded=0;fontSize=9;strokeWidth=1;exitX=0.5;exitY=1;exitDx=0;exitDy=0;entryX=1;entryY=0.5;entryDx=0;entryDy=0;" parent="1" source="m1yTOo-GPtxDC_JN5f1o-38" target="vfh_crtKAgspOHQiJ0qC-46" edge="1">
          <mxGeometry width="160" relative="1" as="geometry">
            <mxPoint x="584.5" y="537" as="sourcePoint" />
            <mxPoint x="478.5" y="467" as="targetPoint" />
            <Array as="points">
              <mxPoint x="677.5" y="468" />
            </Array>
          </mxGeometry>
        </mxCell>
        <mxCell id="vfh_crtKAgspOHQiJ0qC-71" value="" style="endArrow=open;endFill=1;endSize=12;html=1;rounded=0;fontSize=9;strokeWidth=1;entryX=0.5;entryY=0;entryDx=0;entryDy=0;exitX=0.5;exitY=1;exitDx=0;exitDy=0;" parent="1" source="vfh_crtKAgspOHQiJ0qC-58" target="vfh_crtKAgspOHQiJ0qC-59" edge="1">
          <mxGeometry width="160" relative="1" as="geometry">
            <mxPoint x="428.5" y="790" as="sourcePoint" />
            <mxPoint x="174.5" y="790" as="targetPoint" />
            <Array as="points">
              <mxPoint x="414.5" y="780" />
              <mxPoint x="164.5" y="780" />
            </Array>
          </mxGeometry>
        </mxCell>
        <mxCell id="vfh_crtKAgspOHQiJ0qC-72" value="&quot;indietro&quot;" style="endArrow=open;endFill=1;endSize=12;rounded=0;fontSize=9;strokeWidth=1;exitX=0;exitY=0.5;exitDx=0;exitDy=0;entryX=1.035;entryY=0.343;entryDx=0;entryDy=0;entryPerimeter=0;labelBackgroundColor=none;" parent="1" source="vfh_crtKAgspOHQiJ0qC-59" target="vfh_crtKAgspOHQiJ0qC-55" edge="1">
          <mxGeometry x="-1" y="-23" width="160" relative="1" as="geometry">
            <mxPoint x="147.38" y="810.99" as="sourcePoint" />
            <mxPoint x="544.5" y="592" as="targetPoint" />
            <Array as="points">
              <mxPoint x="132.5" y="840" />
              <mxPoint x="564.5" y="840" />
              <mxPoint x="564.5" y="602" />
            </Array>
            <mxPoint y="-4" as="offset" />
          </mxGeometry>
        </mxCell>
      </root>
    </mxGraphModel>
  </diagram>
</mxfile>
